
        <svg xmlns="http://www.w3.org/2000/svg" xmlns:xlink="http://www.w3.org/1999/xlink" version="1.1" width="2468.9887252800295" 
        height="3237.473126017475" viewBox="0 0 2468.9887252800295 3237.473126017475">
			
			<g transform="scale(11.873656300873735) translate(10, 10)">
				<defs id="SvgjsDefs1642"></defs><g id="SvgjsG1643" featureKey="monogramFeature-0" transform="matrix(5.069450855255127,0,0,5.069450855255127,22.790126533569985,-91.2501178985458)" fill="#646ecb"><path d="M24 18 l1.1667 0 l0 42 l-1.1667 0 l0 -17.442 l-19.833 0 l0 17.442 l-1.1667 0 l0 -42 l1.1667 0 l0 17.442 l19.833 0 l0 -17.442 z M24 41.391999999999996 l0 -4.7834 l-19.833 0 l0 4.7834 l19.833 0 z"></path></g><g id="SvgjsG1644" featureKey="nameFeature-0" transform="matrix(0.6793423295021057,0,0,0.6793423295021057,-2.3097636239559645,225.0788712607334)" fill="#111111"><path d="M23.56 12 c0.36 0 0.6 0.24 0.6 0.6 l0 26.8 c0 0.36 -0.24 0.6 -0.6 0.6 l-1.3 0 c-0.36 0 -0.6 -0.24 -0.6 -0.6 l0 -12.58 l-15.76 0 l0 12.58 c0 0.36 -0.24 0.6 -0.6 0.6 l-1.3 0 c-0.36 0 -0.6 -0.24 -0.6 -0.6 l0 -26.8 c0 -0.36 0.24 -0.6 0.6 -0.6 l1.3 0 c0.36 0 0.6 0.24 0.6 0.6 l0 11.86 l15.76 0 l0 -11.86 c0 -0.36 0.24 -0.6 0.6 -0.6 l1.3 0 z M53.807500000000005 12 c0.36 0 0.6 0.24 0.6 0.6 l0 1.16 c0 0.36 -0.24 0.6 -0.6 0.6 l-8.9 0 l0 25.04 c0 0.36 -0.24 0.6 -0.6 0.6 l-1.3 0 c-0.36 0 -0.6 -0.24 -0.6 -0.6 l0 -25.04 l-8.9 0 c-0.36 0 -0.6 -0.24 -0.6 -0.6 l0 -1.16 c0 -0.36 0.24 -0.6 0.6 -0.6 l20.3 0 z M82.555 12 c0.36 0 0.6 0.24 0.6 0.6 l0 1.16 c0 0.36 -0.24 0.6 -0.6 0.6 l-8.9 0 l0 25.04 c0 0.36 -0.24 0.6 -0.6 0.6 l-1.3 0 c-0.36 0 -0.6 -0.24 -0.6 -0.6 l0 -25.04 l-8.9 0 c-0.36 0 -0.6 -0.24 -0.6 -0.6 l0 -1.16 c0 -0.36 0.24 -0.6 0.6 -0.6 l20.3 0 z M102.4625 12 c6.7 0 9.44 3.12 9.44 8.48 c0 5.38 -2.74 8.5 -9.44 8.5 l-8.06 0 l0 10.42 c0 0.36 -0.24 0.6 -0.6 0.6 l-1.3 0 c-0.36 0 -0.6 -0.24 -0.6 -0.6 l0 -26.8 c0 -0.36 0.24 -0.6 0.6 -0.6 l9.96 0 z M102.6025 26.619999999999997 c3.98 0 6.84 -1.16 6.84 -6.14 s-2.86 -6.12 -6.84 -6.12 l-8.2 0 l0 12.26 l8.2 0 z M131.21 12 c6.7 0 9.44 3.12 9.44 8.48 c0 5.38 -2.74 8.5 -9.44 8.5 l-8.06 0 l0 10.42 c0 0.36 -0.24 0.6 -0.6 0.6 l-1.3 0 c-0.36 0 -0.6 -0.24 -0.6 -0.6 l0 -26.8 c0 -0.36 0.24 -0.6 0.6 -0.6 l9.96 0 z M131.35000000000002 26.619999999999997 c3.98 0 6.84 -1.16 6.84 -6.14 s-2.86 -6.12 -6.84 -6.12 l-8.2 0 l0 12.26 l8.2 0 z M166.6975 37.64 c0.36 0 0.6 0.24 0.6 0.6 l0 1.16 c0 0.36 -0.24 0.6 -0.6 0.6 l-16.7 0 c-0.36 0 -0.6 -0.24 -0.6 -0.6 l0 -26.8 c0 -0.36 0.24 -0.6 0.6 -0.6 l1.3 0 c0.36 0 0.6 0.24 0.6 0.6 l0 25.04 l14.8 0 z M193.645 37.64 c0.36 0 0.6 0.24 0.6 0.6 l0 1.16 c0 0.36 -0.24 0.6 -0.6 0.6 l-16.9 0 c-0.36 0 -0.6 -0.24 -0.6 -0.6 l0 -26.8 c0 -0.36 0.24 -0.6 0.6 -0.6 l16.86 0 c0.36 0 0.6 0.24 0.6 0.6 l0 1.16 c0 0.36 -0.24 0.6 -0.6 0.6 l-14.96 0 l0 9.62 l13.86 0 c0.36 0 0.6 0.24 0.6 0.6 l0 1.16 c0 0.36 -0.24 0.6 -0.6 0.6 l-13.86 0 l0 11.3 l15 0 z M225.51250000000002 39.32 c0.16 0.4 -0.04 0.68 -0.48 0.68 l-1.26 0 c-0.32 0 -0.54 -0.12 -0.68 -0.48 l-2.3 -6.06 l-14.12 0 l-2.3 6.06 c-0.14 0.36 -0.36 0.48 -0.68 0.48 l-1.26 0 c-0.44 0 -0.64 -0.28 -0.48 -0.68 l10.32 -26.84 c0.12 -0.32 0.42 -0.48 0.74 -0.48 l1.48 0 c0.32 0 0.58 0.16 0.7 0.48 z M207.57250000000002 31.14 l12.32 0 l-6.16 -16.2 z M242.64000000000001 24.46 c5.52 1.18 10.26 2.7 10.26 8.52 c0 4.26 -3.06 7.62 -10.14 7.62 c-5.84 0 -9.66 -2.24 -10.04 -6.38 c-0.04 -0.4 0.2 -0.74 0.56 -0.74 l1.36 0 c0.36 0 0.58 0.3 0.6 0.62 c0.26 2.54 3.06 4.2 7.52 4.2 c4.96 0 7.66 -1.74 7.66 -5.36 c0 -4.3 -3.32 -4.96 -7.78 -6.06 c-5.12 -1.26 -9.18 -2.84 -9.18 -8.16 c0 -4.22 3.02 -7.06 9 -7.06 c5.64 0 9.16 2.18 9.58 6.3 c0.04 0.4 -0.2 0.56 -0.56 0.56 l-1.26 0 c-0.36 0 -0.58 -0.12 -0.6 -0.44 c-0.26 -2.44 -2.92 -4.18 -7.18 -4.18 c-3.92 0 -6.6 1.58 -6.6 4.82 c0 3.42 2.7 4.84 6.8 5.74 z M279.4475 37.64 c0.36 0 0.6 0.24 0.6 0.6 l0 1.16 c0 0.36 -0.24 0.6 -0.6 0.6 l-16.9 0 c-0.36 0 -0.6 -0.24 -0.6 -0.6 l0 -26.8 c0 -0.36 0.24 -0.6 0.6 -0.6 l16.86 0 c0.36 0 0.6 0.24 0.6 0.6 l0 1.16 c0 0.36 -0.24 0.6 -0.6 0.6 l-14.96 0 l0 9.62 l13.86 0 c0.36 0 0.6 0.24 0.6 0.6 l0 1.16 c0 0.36 -0.24 0.6 -0.6 0.6 l-13.86 0 l0 11.3 l15 0 z"></path></g>
			</g>
		</svg>
	